<?xml version="1.0" encoding="utf-8"?>
<!-- Generator: Adobe Illustrator 24.0.2, SVG Export Plug-In . SVG Version: 6.00 Build 0)  -->
<svg version="1.1" id="Слой_1" xmlns="http://www.w3.org/2000/svg" xmlns:xlink="http://www.w3.org/1999/xlink" x="0px" y="0px"
	 viewBox="0 0 394.28 511.89" style="enable-background:new 0 0 394.28 511.89;" xml:space="preserve">
<style type="text/css">
	.st0{fill:#FFFFFF;}
</style>
<g>
	<path d="M393.95,255.53c0,58.48,0.65,116.98-0.26,175.45c-0.5,32.12-17.29,55.5-45.27,70.78c-12.65,6.91-26.44,9.77-40.79,9.78
		c-74.15,0.04-148.29,0.27-222.44-0.1c-40.01-0.2-72.28-25.22-82.61-63.41c-1.96-7.27-2.49-15.11-2.5-22.69
		C-0.07,311.87,0.29,198.4-0.18,84.93C-0.37,39.28,35.75,0,85.08-0.29c52.82-0.31,105.64-0.1,158.46-0.08
		c23.16,0.01,46.35-0.64,69.47,0.34c46.8,1.99,81.61,40.45,81.17,84.6c-0.56,56.98-0.14,113.97-0.14,170.95
		C394.01,255.53,393.98,255.53,393.95,255.53z M381.94,255.46c0.01,0,0.01,0,0.02,0c0-58.32,0.02-116.64-0.01-174.96
		c-0.01-10.69-2.72-20.78-7.95-30.04c-14.57-25.81-37.12-38.29-66.44-38.43c-54.32-0.26-108.64-0.27-162.96-0.2
		c-22.48,0.03-45.01-0.31-67.43,1c-34.95,2.05-65.38,32.5-65.25,71.05c0.39,114.14,0.12,228.28,0.16,342.42
		c0.01,40.81,29.8,72.12,70.65,72.46c73.81,0.62,147.63,0.28,221.44,0.26c5.8,0,11.68-0.18,17.4-1.09
		c35.3-5.6,60.31-34.87,60.35-70.51C381.98,370.1,381.94,312.78,381.94,255.46z"/>
	<path d="M251.18,211.78c0,21.67-0.17,42.14,0.12,62.6c0.07,4.97-1.49,6.3-6.23,6.28c-32.16-0.16-64.32-0.16-96.48-0.01
		c-4.8,0.02-6.17-1.34-6.09-6.3c0.33-20.32,0.14-40.64,0.14-62.11c-4.91,3.07-9.5,5.55-13.64,8.63c-3.75,2.78-6.01,2.02-8.57-1.57
		c-5.52-7.71-11.29-15.24-17.11-22.73c-2.09-2.69-1.85-4.54,0.79-6.69c10.7-8.72,21.22-17.66,31.98-26.3
		c2.13-1.72,4.91-2.8,7.56-3.67c8.66-2.85,17.36-5.62,26.15-8.04c1.89-0.52,4.69-0.07,6.29,1.05c12.58,8.8,29.91,8.82,42.09,0.04
		c1.55-1.12,4.31-1.49,6.21-1.01c5.79,1.45,11.36,3.81,17.15,5.21c9.56,2.31,17.98,6.2,25.27,13.11
		c7.35,6.97,15.53,13.08,23.41,19.49c2.51,2.05,3.04,3.77,0.78,6.61c-6.11,7.69-11.99,15.56-17.73,23.52
		c-2.41,3.34-4.77,3.56-7.96,1.34C260.98,218.21,256.54,215.35,251.18,211.78z"/>
	<path d="M197.08,26.82c6.04,8.5,11.57,16.13,16.94,23.87c5.88,8.47,11.97,16.82,17.34,25.61c10.94,17.9,9.04,39.06-4.23,52.53
		c-14.96,15.18-37.68,16.86-55.55,4.1c-15.48-11.05-21.23-33.8-11.44-51.47c7.55-13.61,17.09-26.12,25.83-39.06
		C189.32,37.45,192.91,32.66,197.08,26.82z"/>
	<path d="M140.05,299.21c17.41,0,35.95-1.26,54.24,0.32c22.09,1.92,32.72,25.5,21,44.6c-2.47,4.03-6.98,6.81-11.2,10.78
		c2.55,4.37,5.62,9.61,8.68,14.86c2.99,5.13,5.97,10.27,9.41,16.2c-9.42,0-18.14,0.1-26.85-0.13c-1.05-0.03-2.34-1.61-3.02-2.76
		c-4.15-7-8.46-13.93-12.1-21.19c-2.1-4.19-4.75-5.88-9.26-5.18c-1.44,0.22-2.94,0.04-4.53,0.04c0,9.78,0,19.16,0,28.9
		c-8.86,0-18.24,0-27.02,0C141.83,356.82,139.69,328.03,140.05,299.21z M166.09,338.81c6.86,0,13.33,0.29,19.77-0.09
		c5.47-0.33,8.6-3.93,8.8-9.01c0.21-5.54-2.54-9.67-8.12-10.18c-6.7-0.61-13.49-0.14-20.45-0.14
		C166.09,325.64,166.09,331.93,166.09,338.81z"/>
	<path d="M43.64,299.55c16.22,0,33.88-1.65,51.1,0.38c26.45,3.13,38.17,27.01,33.63,49.82c-4.87,24.45-20.17,36.21-45.21,36.25
		c-13.64,0.02-27.29,0-40.26,0C44.8,356.77,43.88,327.96,43.64,299.55z M68.11,366.04c7.66-0.68,14.81-0.78,21.72-2.1
		c6.22-1.19,10.26-5.65,12.47-11.72c4.93-13.47,0.19-27.44-11.79-31.18c-6.31-1.97-13.41-1.51-20.17-1.81
		c-0.69-0.03-2.12,2.25-2.14,3.47C68.05,336.66,68.11,350.63,68.11,366.04z"/>
	<path d="M171.73,399.59c-0.61,0.18-0.01-0.15,0.6-0.16c8.81-0.03,17.61-0.02,26.47-0.02c-3.49,16.74-1.8,33.38-1.63,49.9
		c0.25,25.5-14.45,36.25-36.22,38.09c-11.76,0.99-23.33-0.5-33.45-7.41c-8.99-6.14-12.68-15.12-12.8-25.69
		c-0.15-13.32,0.09-26.65-0.16-39.97c-0.09-4.74-1.13-9.46-1.77-14.53c9.01,0,18.66,0,28.36,0c-3.67,12.6-1.4,25.43-1.82,38.12
		c-0.18,5.47-0.18,11.03,0.55,16.44c1.32,9.76,7.89,12.26,16.04,12.3c9.37,0.05,15.5-3.15,16.25-12.45
		c0.75-9.26,0.61-18.62,0.53-27.93C172.58,417.55,172.07,408.84,171.73,399.59z"/>
	<path d="M300.76,360.56c0,8.86,0,16.93,0,25.31c-8.58,0-17.85,0-26.28,0c0-29.12,0-58.11,0-87.59c2.58,0,5.71-0.03,8.83,0.01
		c12.99,0.15,25.99,0,38.96,0.56c12.3,0.53,23.02,4.62,28,17.14c5.2,13.08,2.31,28.66-6.41,36.69c-5.92,5.44-13.24,7.55-21.05,7.84
		C315.49,360.77,308.16,360.56,300.76,360.56z M300.33,341.37c6.49-0.33,12.77-0.25,18.93-1.09c5.34-0.73,7.82-4.85,7.74-11.03
		c-0.07-5.53-2.55-9.24-7.87-9.75c-6.16-0.59-12.42-0.14-18.8-0.14C300.33,326.51,300.33,333.55,300.33,341.37z"/>
	<path d="M209.01,485.22c0-5.37-0.22-10.2,0.12-15c0.13-1.79,1.25-3.76,2.46-5.19c11.56-13.74,23.25-27.38,34.88-41.07
		c0.85-1,1.56-2.12,3.34-4.56c-14.25,0.58-27.35,1.11-40.61,1.64c0-6.43,0-13.57,0-21.18c1.13-0.16,2.37-0.48,3.62-0.48
		c21.65-0.04,43.31,0.08,64.96-0.13c4.12-0.04,4.74,1.48,5.08,5.17c0.72,7.82-1.61,13.88-6.96,19.74
		c-10.63,11.67-20.55,23.99-30.75,36.05c-0.83,0.98-1.52,2.07-3.3,4.51c14.55-0.58,27.88,1.88,41.27-3.1c0,8.11,0,15.71,0,23.6
		C258.43,485.22,234.02,485.22,209.01,485.22z"/>
	<path d="M259.74,385.93c-0.27,0.02-1.58,0.21-2.89,0.21c-7.81,0.03-15.61,0.01-22.63,0.01c0.58-29.28,1.14-58.08-0.43-87.39
		c8.49,0,17.66,0,25.99,0c-0.18,14.52-0.49,29.07-0.5,43.62C259.27,356.8,259.57,371.23,259.74,385.93z"/>
	<path class="st0" d="M166.09,338.81c0-6.89,0-13.17,0-19.43c6.96,0,13.75-0.47,20.45,0.14c5.58,0.51,8.33,4.64,8.12,10.18
		c-0.19,5.08-3.32,8.68-8.8,9.01C179.43,339.1,172.95,338.81,166.09,338.81z"/>
	<path class="st0" d="M68.11,366.04c0-15.41-0.06-29.38,0.1-43.34c0.01-1.22,1.45-3.5,2.14-3.47c6.76,0.3,13.86-0.16,20.17,1.81
		c11.98,3.74,16.72,17.71,11.79,31.18c-2.22,6.07-6.25,10.53-12.47,11.72C82.91,365.26,75.77,365.36,68.11,366.04z"/>
	<path class="st0" d="M300.33,341.37c0-7.82,0-14.87,0-22.02c6.38,0,12.64-0.45,18.8,0.14c5.31,0.51,7.8,4.23,7.87,9.75
		c0.08,6.18-2.39,10.31-7.74,11.03C313.11,341.12,306.83,341.04,300.33,341.37z"/>
</g>
</svg>
