<?xml version="1.0" encoding="utf-8"?>
<!-- Generator: Adobe Illustrator 24.0.2, SVG Export Plug-In . SVG Version: 6.00 Build 0)  -->
<svg version="1.1" id="Слой_1" xmlns="http://www.w3.org/2000/svg" xmlns:xlink="http://www.w3.org/1999/xlink" x="0px" y="0px"
	 viewBox="0 0 394.3 511.9" style="enable-background:new 0 0 394.3 511.9;" xml:space="preserve">
<g>
	<path d="M394,255.5c0,58.5,0.6,117-0.3,175.4c-0.5,32.1-17.3,55.5-45.3,70.8c-12.6,6.9-26.4,9.8-40.8,9.8
		c-74.1,0-148.3,0.3-222.4-0.1c-40-0.2-72.3-25.2-82.6-63.4c-2-7.3-2.5-15.1-2.5-22.7C-0.1,311.9,0.3,198.4-0.2,84.9
		C-0.4,39.3,35.8,0,85.1-0.3c52.8-0.3,105.6-0.1,158.5-0.1C266.7-0.4,289.9-1,313,0c46.8,2,81.6,40.5,81.2,84.6
		C393.6,141.6,394,198.5,394,255.5C394,255.5,394,255.5,394,255.5z M381.9,255.5C382,255.5,382,255.5,381.9,255.5
		c0-58.3,0-116.6,0-175c0-10.7-2.7-20.8-8-30c-14.6-25.8-37.1-38.3-66.4-38.4c-54.3-0.3-108.6-0.3-163-0.2c-22.5,0-45-0.3-67.4,1
		c-35,2.1-65.4,32.5-65.3,71.1C12.3,198,12,312.2,12.1,426.3c0,40.8,29.8,72.1,70.7,72.5c73.8,0.6,147.6,0.3,221.4,0.3
		c5.8,0,11.7-0.2,17.4-1.1c35.3-5.6,60.3-34.9,60.4-70.5C382,370.1,381.9,312.8,381.9,255.5z"/>
	<path d="M251.2,211.8c0,21.7-0.2,42.1,0.1,62.6c0.1,5-1.5,6.3-6.2,6.3c-32.2-0.2-64.3-0.2-96.5,0c-4.8,0-6.2-1.3-6.1-6.3
		c0.3-20.3,0.1-40.6,0.1-62.1c-4.9,3.1-9.5,5.6-13.6,8.6c-3.8,2.8-6,2-8.6-1.6c-5.5-7.7-11.3-15.2-17.1-22.7
		c-2.1-2.7-1.8-4.5,0.8-6.7c10.7-8.7,21.2-17.7,32-26.3c2.1-1.7,4.9-2.8,7.6-3.7c8.7-2.9,17.4-5.6,26.1-8c1.9-0.5,4.7-0.1,6.3,1.1
		c12.6,8.8,29.9,8.8,42.1,0c1.6-1.1,4.3-1.5,6.2-1c5.8,1.4,11.4,3.8,17.1,5.2c9.6,2.3,18,6.2,25.3,13.1c7.4,7,15.5,13.1,23.4,19.5
		c2.5,2.1,3,3.8,0.8,6.6c-6.1,7.7-12,15.6-17.7,23.5c-2.4,3.3-4.8,3.6-8,1.3C261,218.2,256.5,215.4,251.2,211.8z"/>
	<path d="M197.1,26.8c6,8.5,11.6,16.1,16.9,23.9c5.9,8.5,12,16.8,17.3,25.6c10.9,17.9,9,39.1-4.2,52.5c-15,15.2-37.7,16.9-55.6,4.1
		c-15.5-11.1-21.2-33.8-11.4-51.5c7.6-13.6,17.1-26.1,25.8-39.1C189.3,37.4,192.9,32.7,197.1,26.8z"/>
	<path d="M140.1,299.2c17.4,0,35.9-1.3,54.2,0.3c22.1,1.9,32.7,25.5,21,44.6c-2.5,4-7,6.8-11.2,10.8c2.6,4.4,5.6,9.6,8.7,14.9
		c3,5.1,6,10.3,9.4,16.2c-9.4,0-18.1,0.1-26.9-0.1c-1.1,0-2.3-1.6-3-2.8c-4.1-7-8.5-13.9-12.1-21.2c-2.1-4.2-4.8-5.9-9.3-5.2
		c-1.4,0.2-2.9,0-4.5,0c0,9.8,0,19.2,0,28.9c-8.9,0-18.2,0-27,0C141.8,356.8,139.7,328,140.1,299.2z M166.1,338.8
		c6.9,0,13.3,0.3,19.8-0.1c5.5-0.3,8.6-3.9,8.8-9c0.2-5.5-2.5-9.7-8.1-10.2c-6.7-0.6-13.5-0.1-20.4-0.1
		C166.1,325.6,166.1,331.9,166.1,338.8z"/>
	<path d="M43.6,299.5c16.2,0,33.9-1.6,51.1,0.4c26.5,3.1,38.2,27,33.6,49.8c-4.9,24.5-20.2,36.2-45.2,36.3c-13.6,0-27.3,0-40.3,0
		C44.8,356.8,43.9,328,43.6,299.5z M68.1,366c7.7-0.7,14.8-0.8,21.7-2.1c6.2-1.2,10.3-5.6,12.5-11.7c4.9-13.5,0.2-27.4-11.8-31.2
		c-6.3-2-13.4-1.5-20.2-1.8c-0.7,0-2.1,2.3-2.1,3.5C68.1,336.7,68.1,350.6,68.1,366z"/>
	<path d="M171.7,399.6c-0.6,0.2,0-0.1,0.6-0.2c8.8,0,17.6,0,26.5,0c-3.5,16.7-1.8,33.4-1.6,49.9c0.3,25.5-14.4,36.3-36.2,38.1
		c-11.8,1-23.3-0.5-33.4-7.4c-9-6.1-12.7-15.1-12.8-25.7c-0.2-13.3,0.1-26.6-0.2-40c-0.1-4.7-1.1-9.5-1.8-14.5c9,0,18.7,0,28.4,0
		c-3.7,12.6-1.4,25.4-1.8,38.1c-0.2,5.5-0.2,11,0.6,16.4c1.3,9.8,7.9,12.3,16,12.3c9.4,0,15.5-3.1,16.3-12.5
		c0.8-9.3,0.6-18.6,0.5-27.9C172.6,417.5,172.1,408.8,171.7,399.6z"/>
	<path d="M300.8,360.6c0,8.9,0,16.9,0,25.3c-8.6,0-17.9,0-26.3,0c0-29.1,0-58.1,0-87.6c2.6,0,5.7,0,8.8,0c13,0.1,26,0,39,0.6
		c12.3,0.5,23,4.6,28,17.1c5.2,13.1,2.3,28.7-6.4,36.7c-5.9,5.4-13.2,7.5-21,7.8C315.5,360.8,308.2,360.6,300.8,360.6z M300.3,341.4
		c6.5-0.3,12.8-0.3,18.9-1.1c5.3-0.7,7.8-4.9,7.7-11c-0.1-5.5-2.5-9.2-7.9-9.8c-6.2-0.6-12.4-0.1-18.8-0.1
		C300.3,326.5,300.3,333.5,300.3,341.4z"/>
	<path d="M209,485.2c0-5.4-0.2-10.2,0.1-15c0.1-1.8,1.3-3.8,2.5-5.2c11.6-13.7,23.3-27.4,34.9-41.1c0.9-1,1.6-2.1,3.3-4.6
		c-14.3,0.6-27.4,1.1-40.6,1.6c0-6.4,0-13.6,0-21.2c1.1-0.2,2.4-0.5,3.6-0.5c21.6,0,43.3,0.1,65-0.1c4.1,0,4.7,1.5,5.1,5.2
		c0.7,7.8-1.6,13.9-7,19.7c-10.6,11.7-20.6,24-30.8,36c-0.8,1-1.5,2.1-3.3,4.5c14.6-0.6,27.9,1.9,41.3-3.1c0,8.1,0,15.7,0,23.6
		C258.4,485.2,234,485.2,209,485.2z"/>
	<path d="M259.7,385.9c-0.3,0-1.6,0.2-2.9,0.2c-7.8,0-15.6,0-22.6,0c0.6-29.3,1.1-58.1-0.4-87.4c8.5,0,17.7,0,26,0
		c-0.2,14.5-0.5,29.1-0.5,43.6C259.3,356.8,259.6,371.2,259.7,385.9z"/>
</g>
</svg>
